<?xml version="1.0" encoding="utf-8"?>
<svg xmlns="http://www.w3.org/2000/svg" viewBox="0 0 48 48" width="24" height="24">
  <linearGradient id="nSty7nEDx8EtQ_3vogAExa" x1="9.858" x2="38.387" y1="108.142" y2="79.613" gradientTransform="matrix(1 0 0 -1 0 118)" gradientUnits="userSpaceOnUse">
    <stop offset="0" stop-color="#00bffe" />
    <stop offset="1" stop-color="#1d55c4" />
  </linearGradient>
  <path fill="url(#nSty7nEDx8EtQ_3vogAExa)" d="M44,24c0,11.045-8.955,20-20,20S4,35.045,4,24S12.955,4,24,4S44,12.955,44,24z" />
  <linearGradient id="nSty7nEDx8EtQ_3vogAExb" x1="10.204" x2="38.624" y1="108.319" y2="79.899" gradientTransform="matrix(1 0 0 -1 0 118)" gradientUnits="userSpaceOnUse">
    <stop offset="0" stop-color="#84e1fe" />
    <stop offset="1" stop-color="#167cf7" />
  </linearGradient>
  <path fill="url(#nSty7nEDx8EtQ_3vogAExb)" d="M23.77,34.508c0.23,0.683,0,1.596-0.229,2.055c-0.225,0.684-0.454,1.597-0.913,2.051c-0.454,0.459-0.913,0.689-1.367,0.917c-0.684,0.454-1.142,1.367-1.826,2.055c0,0.225-0.913,1.386-1.142,1.386c-0.085,0.045-0.166,0.086-0.248,0.127c-1.348-0.42-2.628-0.988-3.837-1.669c-0.008-0.024-0.017-0.047-0.026-0.072c0-0.229-0.225-1.6-0.225-1.826c-0.229-0.687-0.459-1.6-0.687-2.284c-0.454-1.142-1.367-2.284-1.367-3.651c0-1.143,0.225-2.28-0.459-3.197c-0.913-1.142-2.739-1.142-3.652-1.826c-1.372-0.913-2.739-2.28-3.423-3.652c-0.163-0.27-0.273-0.521-0.363-0.768C4.007,24.101,4,24.052,4,24c0-5.356,2.118-10.21,5.548-13.8c1.876-1.517,5.535-2.215,7.756-1.545c0.684,0.225,3.145,1.697,3.145,2.381c0,0.229,0,0.229-0.229,0.459c-0.225,0.229-0.455,0.229-0.684,0.229c-0.684,0-2.839-0.497-3.069-0.727c-1.372-0.458-3.423,2.51-3.651,3.423c-0.229,0.687-0.229,2.284,0.913,2.513c0.684,0,3.814-2.656,4.273-2.885c1.826-0.225,3.237,1.34,3.696,2.941c0.684,1.826-3.175,3.591-4.547,4.05c-0.454,0.229-0.683-0.229-1.142,0c-1.138,0.454-1.811,1.474-1.947,2.839c-0.115,1.155-0.229,2.281-0.454,3.423c-0.229,0-0.698-0.003-0.698-0.232v-0.454c0-0.689-0.229-1.601-0.913-1.83c-0.229-0.224-0.552,0.136-0.781,0.136c-0.684,0-1.367-0.687-2.051-0.229c-0.459,0.454-0.913,1.142-0.913,1.826c0,0.23,0,0.459,0.225,0.684c0.459,0.229,0.913-0.225,1.372,0c0.454,0,0.454,0.459,0.454,0.687c0.459,0.684,0.913,1.597,1.6,1.826h4.564c0.684,0.229,1.826,0.454,2.284,0.913c0.224,0.454,0.224,0.913,0.454,1.367c1.142,1.142,2.509,1.142,3.88,1.6C23.541,33.824,23.771,34.049,23.77,34.508z M36.524,8.42c-0.101,0.03-0.202,0.057-0.301,0.1c-0.684,0.229-2.469,3.525-2.926,4.208c-0.229,0.229-0.454,0.684-0.229,0.913c0,0.229,0.229,0.229,0.459,0.229c0.454,0.229,0.516,0.324,0.974,0.549c0.229,0,0.454,0.229,0.229,0.459c0,0,0,0.229-0.229,0.229c-1.142,1.142-2.284,2.055-3.423,3.193c-0.23,0.231-0.383,0.69-0.383,0.914c0,0.229,0.153,0.229,0.153,0.459s-0.229,0.229-0.459,0.454c-0.454,0.229-0.913,0.459-1.142,0.687c-0.225,0.454,0,1.142-0.225,1.597c-0.23,1.142-0.917,2.055-1.372,3.197c-0.459,0.684-0.868,1.367-1.327,2.055c0,0.913-0.229,1.597,0.229,2.28c1.142,1.6,3.428,0.069,5.025,0.752c0.454,0.229,0.845,0.271,1.142,0.684c0.567,0.787,0.636,2.445,0.866,3.133c0.225,0.913,0.454,1.826,0.913,2.739c0.227,1.132,0.675,2.263,0.906,3.167C40.596,36.804,44,30.803,44,24C44,17.699,41.079,12.086,36.524,8.42z M28.608,9.357c0.68-0.437,1.135-1.308,1.363-1.961c0.223-0.438,0.907-1.308,0.68-1.961c-0.177-0.34-0.897-0.544-1.423-0.721C27.558,4.263,25.812,4,24,4c-0.46,0-0.911,0.038-1.363,0.069c-0.381,0.132-0.709,0.356-0.833,0.714c-0.228,1.089,0.68,0.87,1.586,1.089c0,0,0.228,1.742,0.228,1.961c0.228,1.089-0.455,1.742-0.455,2.828c0,0.656,0,1.745,0.455,2.18h0.228c0.228,0,0.451-0.219,0.907-0.433c0.68-0.438,1.363-1.089,2.042-1.527C27.474,10.447,28.153,9.791,28.608,9.357z" />
  <path d="M42.966,17.686c-1.985-5.963-6.695-10.671-12.659-12.655C28.289,6.682,27,9.19,27,12c0,2.438,0.974,4.647,2.549,6.268c0.009,0.009,5.744,5.749,5.744,5.749c0.391,0.391,1.024,0.391,1.414,0c0,0,5.735-5.74,5.744-5.749C42.632,18.082,42.802,17.886,42.966,17.686z" opacity=".05" />
  <path d="M42.761,17.126c-2.008-5.513-6.38-9.884-11.894-11.89C28.823,6.784,27.5,9.237,27.5,12c0,2.303,0.928,4.381,2.407,5.92c0.008,0.009,5.425,5.43,5.425,5.43c0.369,0.369,0.967,0.369,1.336,0c0,0,5.417-5.421,5.425-5.43C42.333,17.67,42.555,17.404,42.761,17.126z" opacity=".07" />
  <linearGradient id="nSty7nEDx8EtQ_3vogAExc" x1="30.344" x2="41.656" y1="111.657" y2="100.346" gradientTransform="matrix(1 0 0 -1 0 118)" gradientUnits="userSpaceOnUse">
    <stop offset="0" stop-color="#d43a02" />
    <stop offset="1" stop-color="#b9360c" />
  </linearGradient>
  <path fill="url(#nSty7nEDx8EtQ_3vogAExc)" d="M41.734,17.571C43.134,16.131,44,14.168,44,12c0-4.418-3.582-8-8-8s-8,3.582-8,8c0,2.168,0.866,4.131,2.266,5.571c0.008,0.008,5.106,5.111,5.106,5.111c0.347,0.347,0.91,0.347,1.257,0C36.629,22.682,41.726,17.58,41.734,17.571z" />
  <radialGradient id="nSty7nEDx8EtQ_3vogAExd" cx="36" cy="106" r="3.5" gradientTransform="matrix(1 0 0 -1 0 118)" gradientUnits="userSpaceOnUse">
    <stop offset=".177" />
    <stop offset="1" stop-opacity="0" />
  </radialGradient>
  <circle cx="36" cy="12" r="3.5" fill="url(#nSty7nEDx8EtQ_3vogAExd)" />
  <circle cx="36" cy="12" r="3" fill="#f9f9f9" />
</svg>